<svg width="157" height="157" viewBox="0 0 157 157" fill="none" xmlns="http://www.w3.org/2000/svg">
<rect width="157" height="157" rx="24" fill="white"/>
<path d="M33.4219 100.682L7.37695 90.1348V82.0781L33.4219 71.5605V80.8184L18.8027 85.7988L17.7773 86.0918V86.2676L18.8027 86.5312L33.4219 91.4238V100.682ZM53.4316 102L40.0723 65.8477L36.0293 65.3789V59.3438H55.1602V65.3789L51.3516 65.9648L58.998 89.9297L59.4082 91.5996H59.584L59.9648 90.0176L67.377 65.9648L62.8066 65.3789V59.3438H80.6777V65.3789L76.5176 65.8477L64.5645 102H53.4316ZM103.705 102.615C99.6426 102.615 96.0195 101.795 92.8359 100.154C89.6523 98.5137 87.1523 96.1406 85.3359 93.0352C83.5195 89.9102 82.6113 86.1211 82.6113 81.668V79.7051C82.6113 75.6035 83.4414 71.9805 85.1016 68.8359C86.7812 65.6719 89.1641 63.2012 92.25 61.4238C95.3555 59.627 99.0371 58.7285 103.295 58.7285C106.264 58.7285 109.086 59.1289 111.762 59.9297C114.457 60.7109 116.957 62.0586 119.262 63.9727V74.959H111.791L110.766 68.6602C110.102 68.2109 109.398 67.8203 108.656 67.4883C107.934 67.1562 107.152 66.9023 106.312 66.7266C105.492 66.5508 104.604 66.4629 103.646 66.4629C101.479 66.4629 99.584 66.9805 97.9629 68.0156C96.3418 69.0508 95.082 70.5547 94.1836 72.5273C93.3047 74.4805 92.8652 76.8535 92.8652 79.6465V81.668C92.8652 84.2852 93.3242 86.5898 94.2422 88.582C95.1602 90.5547 96.4395 92.0977 98.0801 93.2109C99.7402 94.3242 101.654 94.8809 103.822 94.8809C104.975 94.8809 106.146 94.7637 107.338 94.5293C108.529 94.2754 109.682 93.9434 110.795 93.5332L111.82 87.498H119.32V98.25C117.621 99.4219 115.453 100.447 112.816 101.326C110.18 102.186 107.143 102.615 103.705 102.615ZM123.51 100.74V91.4824L137.514 86.502L138.891 86.1797V86.0039L137.514 85.5938L123.51 80.8477V71.6191L149.32 82.1367V90.1934L123.51 100.74Z" fill="black"/>
</svg>
